<svg width="1600" height="900" viewBox="0 0 1600 900" fill="none" xmlns="http://www.w3.org/2000/svg">
<rect width="1600" height="900" fill="#FFD8E8"/>
<path fill-rule="evenodd" clip-rule="evenodd" d="M699.051 293.371C766.231 287.531 833.791 287.531 900.971 293.371L933.184 296.187C948.16 297.491 962.262 303.797 973.218 314.091C984.173 324.385 991.345 338.067 993.579 352.933C1003.25 417.283 1003.25 482.717 993.579 547.067C992.725 552.699 991.189 558.096 989.056 563.152C987.648 566.501 983.296 567.013 980.821 564.325L886.507 460.56C884.421 458.266 881.714 456.628 878.714 455.844C875.715 455.06 872.552 455.164 869.611 456.144L815.616 474.149L737.301 386.043C735.853 384.413 734.086 383.096 732.11 382.174C730.135 381.251 727.991 380.743 725.811 380.679C723.632 380.615 721.462 380.997 719.435 381.802C717.409 382.607 715.568 383.818 714.027 385.36L609.195 490.192C608.482 490.924 607.572 491.432 606.575 491.655C605.579 491.877 604.539 491.804 603.583 491.443C602.627 491.083 601.797 490.452 601.195 489.627C600.593 488.803 600.244 487.82 600.192 486.8C597.669 442.075 599.757 397.209 606.421 352.912C608.655 338.046 615.827 324.364 626.782 314.07C637.738 303.776 651.84 297.469 666.816 296.165L699.051 293.371ZM842.667 386C842.667 377.513 846.038 369.374 852.039 363.373C858.04 357.371 866.18 354 874.667 354C883.154 354 891.293 357.371 897.294 363.373C903.295 369.374 906.667 377.513 906.667 386C906.667 394.487 903.295 402.626 897.294 408.627C891.293 414.629 883.154 418 874.667 418C866.18 418 858.04 414.629 852.039 408.627C846.038 402.626 842.667 394.487 842.667 386Z" fill="#FDB0D4"/>
<path d="M607.168 537.467C606.59 538.048 606.155 538.754 605.896 539.532C605.637 540.309 605.561 541.135 605.675 541.947L606.421 547.067C608.655 561.933 615.827 575.615 626.782 585.909C637.738 596.203 651.84 602.509 666.816 603.813L699.029 606.608C766.229 612.453 833.771 612.453 900.971 606.608L933.184 603.813C942.019 603.049 950.612 600.532 958.464 596.411C961.387 594.896 961.877 591.035 959.659 588.603L872.192 492.389C871.497 491.617 870.593 491.064 869.588 490.799C868.584 490.534 867.524 490.567 866.539 490.896L815.723 507.835C812.752 508.827 809.555 508.925 806.529 508.117C803.503 507.309 800.78 505.631 798.699 503.291L728.405 424.208C727.921 423.665 727.331 423.226 726.672 422.919C726.012 422.612 725.296 422.444 724.569 422.424C723.841 422.404 723.118 422.533 722.442 422.803C721.766 423.073 721.153 423.479 720.64 423.995L607.168 537.467Z" fill="#FDB0D4"/>
</svg>
