<svg width="64" height="54" viewBox="0 0 64 54" fill="none" xmlns="http://www.w3.org/2000/svg">
<g clip-path="url(#clip0_15_7)">
<path d="M16 32.3721H4V3.34882H60V32.3721H48M46.6667 53.5814C46.6665 49.2023 48.1177 44.9091 50.8587 41.1795L52 39.6279V39.0697H12V39.6279L13.1413 41.1795C15.8823 44.9091 17.3335 49.2023 17.3333 53.5814M42.6667 33.4883V25.6744C42.6667 25.6744 38.6667 23.4418 32 23.4418C25.3333 23.4418 21.3333 25.6744 21.3333 25.6744V33.4883M31.6 18.9767C31.6 18.9767 27.3333 16.7442 27.3333 13.9535C27.3333 12.9185 27.8244 11.9258 28.6986 11.194C29.5728 10.4621 30.7584 10.051 31.9947 10.051C33.2309 10.051 34.4166 10.4621 35.2907 11.194C36.1649 11.9258 36.656 12.9185 36.656 13.9535C36.656 16.7442 32.4 18.9767 32.4 18.9767H31.6Z" stroke="black" stroke-width="4"/>
</g>
<defs>
<clipPath id="clip0_15_7">
<rect width="64" height="53.5814" fill="white"/>
</clipPath>
</defs>
</svg>
