<svg width="64" height="60" viewBox="0 0 64 60" fill="none" xmlns="http://www.w3.org/2000/svg">
<path d="M24 48.6452C24 52.78 19.52 56.129 14 56.129C8.48 56.129 4 52.78 4 48.6452C4 44.5103 8.48 41.1613 14 41.1613C19.52 41.1613 24 44.5141 24 48.6452ZM60 41.1613C60 45.2961 55.52 48.6452 50 48.6452C44.48 48.6452 40 45.2961 40 41.1613C40 37.0265 44.48 33.6774 50 33.6774C55.52 33.6774 60 37.0265 60 41.1613Z" fill="black"/>
<path fill-rule="evenodd" clip-rule="evenodd" d="M56 41.1613V7.48389H60V41.1613H56ZM24 11.2258V48.6452H20V11.2258H24Z" fill="black"/>
<path d="M20 10.8703C20 9.94265 20.3683 9.04807 21.0335 8.3601C21.6987 7.67213 22.6133 7.23984 23.6 7.14707L55.6 4.15352C56.1562 4.10123 56.718 4.15858 57.2491 4.32188C57.7801 4.48518 58.2687 4.75081 58.6833 5.10162C59.0979 5.45244 59.4293 5.88065 59.656 6.35864C59.8828 6.83663 60 7.35379 60 7.87675V11.2258L20 14.9677V10.8703Z" fill="black"/>
</svg>
