<svg width="64" height="63" viewBox="0 0 64 63" fill="none" xmlns="http://www.w3.org/2000/svg">
<path d="M18.6667 56.9662C14.2223 56.9662 10.4445 55.4557 7.33342 52.4348C4.2223 49.4139 2.66675 45.7456 2.66675 41.43V23.3044H34.6668V41.43C34.6668 45.7456 33.1112 49.4139 30.0001 52.4348C26.889 55.4557 23.1112 56.9662 18.6667 56.9662ZM13.3334 37.5459C14.089 37.5459 14.7227 37.2973 15.2347 36.8002C15.7467 36.303 16.0019 35.6885 16.0001 34.9565C15.9983 34.2246 15.7423 33.6101 15.2321 33.1129C14.7219 32.6158 14.089 32.3672 13.3334 32.3672C12.5779 32.3672 11.945 32.6158 11.4347 33.1129C10.9245 33.6101 10.6685 34.2246 10.6667 34.9565C10.665 35.6885 10.921 36.3039 11.4347 36.8028C11.9485 37.3017 12.5814 37.5494 13.3334 37.5459ZM18.6667 46.3498C20.4001 46.3498 21.945 45.907 23.3014 45.0214C24.6579 44.1359 25.3352 42.9387 25.3334 41.43H12.0001C12.0001 42.9404 12.6783 44.1385 14.0347 45.024C15.3912 45.9096 16.9352 46.3515 18.6667 46.3498ZM24.0001 37.5459C24.7556 37.5459 25.3894 37.2982 25.9014 36.8028C26.4134 36.3073 26.6685 35.6919 26.6668 34.9565C26.665 34.2212 26.409 33.6066 25.8988 33.1129C25.3885 32.6192 24.7556 32.3706 24.0001 32.3672C23.2445 32.3637 22.6116 32.6123 22.1014 33.1129C21.5912 33.6135 21.3352 34.2281 21.3334 34.9565C21.3316 35.685 21.5876 36.3004 22.1014 36.8028C22.6152 37.3051 23.2481 37.5528 24.0001 37.5459ZM45.3334 38.8406C44.1779 38.8406 43.0339 38.7224 41.9014 38.4859C40.769 38.2494 39.6908 37.8929 38.6668 37.4165V19.4203H29.3334V5.17877H61.3334V23.3044C61.3334 27.62 59.7779 31.2883 56.6668 34.3092C53.5556 37.3301 49.7779 38.8406 45.3334 38.8406ZM40.0001 19.4203C40.7556 19.4203 41.3894 19.1717 41.9014 18.6746C42.4134 18.1774 42.6685 17.5629 42.6668 16.8309C42.665 16.099 42.409 15.4845 41.8988 14.9873C41.3885 14.4902 40.7556 14.2416 40.0001 14.2416C39.2445 14.2416 38.6116 14.4902 38.1014 14.9873C37.5912 15.4845 37.3352 16.099 37.3334 16.8309C37.3316 17.5629 37.5876 18.1783 38.1014 18.6772C38.6152 19.1761 39.2481 19.4238 40.0001 19.4203ZM38.6668 28.2242H52.0001C52.0001 26.7137 51.3219 25.5157 49.9654 24.6301C48.609 23.7446 47.065 23.3026 45.3334 23.3044C43.8223 23.3044 42.3334 23.6928 40.8668 24.4696C39.4001 25.2464 38.6668 26.4979 38.6668 28.2242ZM50.6668 19.4203C51.4223 19.4203 52.0561 19.1717 52.5681 18.6746C53.0801 18.1774 53.3352 17.5629 53.3334 16.8309C53.3316 16.099 53.0756 15.4845 52.5654 14.9873C52.0552 14.4902 51.4223 14.2416 50.6668 14.2416C49.9112 14.2416 49.2783 14.4902 48.7681 14.9873C48.2579 15.4845 48.0019 16.099 48.0001 16.8309C47.9983 17.5629 48.2543 18.1783 48.7681 18.6772C49.2819 19.1761 49.9148 19.4238 50.6668 19.4203Z" fill="black"/>
</svg>
