<svg width="64" height="64" viewBox="0 0 64 64" fill="none" xmlns="http://www.w3.org/2000/svg">
<path d="M41.5466 44.8L31.9999 38.6667L22.4533 44.8L25.3333 33.8134L16.5599 26.6667L27.8933 25.9734L31.9999 15.4667L36.1066 25.9734L47.4399 26.6667L38.6666 33.8134M53.3332 32C53.3332 30.5855 53.8952 29.229 54.8953 28.2288C55.8955 27.2286 57.2521 26.6667 58.6666 26.6667V16C58.6666 14.5855 58.1047 13.229 57.1045 12.2288C56.1043 11.2286 54.7477 10.6667 53.3332 10.6667H10.6666C9.2521 10.6667 7.89554 11.2286 6.89535 12.2288C5.89515 13.229 5.33325 14.5855 5.33325 16V26.6667C6.74774 26.6667 8.10429 27.2286 9.10449 28.2288C10.1047 29.229 10.6666 30.5855 10.6666 32C10.6666 33.4145 10.1047 34.7711 9.10449 35.7713C8.10429 36.7714 6.74774 37.3334 5.33325 37.3334V48C5.33325 49.4145 5.89515 50.7711 6.89535 51.7713C7.89554 52.7714 9.2521 53.3334 10.6666 53.3334H53.3332C54.7477 53.3334 56.1043 52.7714 57.1045 51.7713C58.1047 50.7711 58.6666 49.4145 58.6666 48V37.3334C57.2521 37.3334 55.8955 36.7714 54.8953 35.7713C53.8952 34.7711 53.3332 33.4145 53.3332 32Z" fill="black"/>
</svg>
